<svg width="289" height="289" viewBox="0 2 22.5 28" version="1.1" xmlns="http://www.w3.org/2000/svg">
    <path opacity="0.298"  fill="#ddd"
          d="M0 8.063v15.875c0 0.781 0.625 1.406 1.406 1.406h19.625c0.781 0 1.375-0.625 1.375-1.406v-15.875c0-0.781-0.594-1.406-1.375-1.406h-19.625c-0.781 0-1.406 0.625-1.406 1.406zM1.875 13.469v-4.031h5.594v4.031h-5.594zM8.406 13.469v-4.031h5.625v4.031h-5.625zM14.938 13.469v-4.031h5.594v4.031h-5.594zM1.875 18.469v-4.031h5.594v4.031h-5.594zM8.406 18.469v-4.031h5.625v4.031h-5.625zM14.938 18.469v-4.031h5.594v4.031h-5.594zM1.875 23.438v-4.063h5.594v4.063h-5.594zM8.406 23.438v-4.063h5.625v4.063h-5.625zM14.938 23.438v-4.063h5.594v4.063h-5.594z"></path>
</svg>
